<svg width="16" height="16" viewBox="0 0 16 16" fill="none" xmlns="http://www.w3.org/2000/svg">
<path d="M3.4 2H8V4H10V1C10 0.4 9.6 0 9 0H1C0.4 0 0 0.4 0 1V10C0 10.3 0.1 10.5 0.3 10.7L5.3 15.7C5.5 15.9 5.7 16 6 16C6.1 16 6.3 16 6.4 15.9C6.8 15.8 7 15.4 7 15V6C7 5.7 6.9 5.5 6.7 5.3L3.4 2ZM5 12.6L2 9.6V3.4L5 6.4V12.6Z" fill="#546BFB"/>
<path d="M15.7 7.30001L12 3.60001L10.6 5.00001L12.6 7.00001H8V9.00001H12.6L10.6 11L12 12.4L15.7 8.70001C16.1 8.30001 16.1 7.70001 15.7 7.30001Z" fill="#D7DCFF"/>
</svg>
