<svg width="16" height="16" viewBox="0 0 16 16" fill="none" xmlns="http://www.w3.org/2000/svg">
<g clip-path="url(#clip0)">
<path d="M6 12H8C8.6 12 9 11.6 9 11V3.5L12.2 11.4C12.4 11.9 13 12.2 13.5 11.9L15.4 11.1C15.9 10.9 16.2 10.3 15.9 9.8L12.1 0.500004C11.9 3.93391e-06 11.3 -0.299996 10.8 3.91155e-06L9 0.800004C8.9 0.400004 8.5 3.91155e-06 8 3.91155e-06H6C5.4 3.91155e-06 5 0.400004 5 1V11C5 11.6 5.4 12 6 12Z" fill="#7D8FFF"/>
<path d="M1 12H3C3.6 12 4 11.6 4 11V1C4 0.4 3.6 0 3 0H1C0.4 0 0 0.4 0 1V11C0 11.6 0.4 12 1 12Z" fill="#546BFB"/>
<path d="M16 14H0V16H16V14Z" fill="#D7DCFF"/>
</g>
<defs>
<clipPath id="clip0">
<rect width="16" height="16" fill="white"/>
</clipPath>
</defs>
</svg>
