<svg width="16" height="16" viewBox="0 0 16 16" fill="none" xmlns="http://www.w3.org/2000/svg">
<path d="M9 0H7V2H9V0Z" fill="#7D8FFF"/>
<path d="M14.294 3.05155L12.8802 1.63675L11.4654 3.05055L12.8792 4.46535L14.294 3.05155Z" fill="#7D8FFF"/>
<path d="M16 7H14V9H16V7Z" fill="#7D8FFF"/>
<path d="M11.5353 13.0194L12.9501 14.4332L14.3639 13.0184L12.9491 11.6046L11.5353 13.0194Z" fill="#7D8FFF"/>
<path d="M9 14H7V16H9V14Z" fill="#7D8FFF"/>
<path d="M1.56618 12.9485L2.97998 14.3633L4.39478 12.9495L2.98098 11.5347L1.56618 12.9485Z" fill="#7D8FFF"/>
<path d="M2 7H0V9H2V7Z" fill="#7D8FFF"/>
<path d="M4.46467 3.12034L3.04987 1.70654L1.63607 3.12134L3.05087 4.53514L4.46467 3.12034Z" fill="#7D8FFF"/>
<path d="M8 4C5.8 4 4 5.8 4 8C4 10.2 5.8 12 8 12C10.2 12 12 10.2 12 8C12 5.8 10.2 4 8 4Z" fill="#546BFB"/>
</svg>
